<svg width="35" height="35" viewBox="0 0 35 35" fill="none" xmlns="http://www.w3.org/2000/svg">
<path d="M29.1667 8.75002H24.7917V5.83335C24.7917 4.22481 23.4835 2.91669 21.875 2.91669H13.125C11.5165 2.91669 10.2083 4.22481 10.2083 5.83335V8.75002H5.83333C4.22479 8.75002 2.91667 10.0581 2.91667 11.6667V27.7084C2.91667 29.3169 4.22479 30.625 5.83333 30.625H29.1667C30.7752 30.625 32.0833 29.3169 32.0833 27.7084V11.6667C32.0833 10.0581 30.7752 8.75002 29.1667 8.75002ZM21.875 5.83335V8.75002H13.125V5.83335H21.875ZM11.6667 11.6667H29.1667V16.0417H5.83333V11.6667H11.6667ZM5.83333 27.7084V18.9584H14.5833V21.875H20.4167V18.9584H29.1667L29.1681 27.7084H5.83333Z" fill="#F01F4B"/>
</svg>
