<svg width="35" height="35" viewBox="0 0 35 35" fill="none" xmlns="http://www.w3.org/2000/svg">
<path d="M10.2083 16.0417H13.125V18.9584H10.2083V16.0417ZM10.2083 21.875H13.125V24.7917H10.2083V21.875ZM16.0417 16.0417H18.9583V18.9584H16.0417V16.0417ZM16.0417 21.875H18.9583V24.7917H16.0417V21.875ZM21.875 16.0417H24.7917V18.9584H21.875V16.0417ZM21.875 21.875H24.7917V24.7917H21.875V21.875Z" fill="#F01F4B"/>
<path d="M7.29167 32.0834H27.7083C29.3169 32.0834 30.625 30.7752 30.625 29.1667V8.75002C30.625 7.14148 29.3169 5.83335 27.7083 5.83335H24.7917V2.91669H21.875V5.83335H13.125V2.91669H10.2083V5.83335H7.29167C5.68313 5.83335 4.375 7.14148 4.375 8.75002V29.1667C4.375 30.7752 5.68313 32.0834 7.29167 32.0834ZM27.7083 11.6667L27.7098 29.1667H7.29167V11.6667H27.7083Z" fill="#F01F4B"/>
</svg>
