<svg width="35" height="35" viewBox="0 0 35 35" fill="none" xmlns="http://www.w3.org/2000/svg">
<path d="M17.5 2.91669C14.6157 2.91669 11.7962 3.77198 9.39796 5.37442C6.99974 6.97686 5.13056 9.25446 4.02678 11.9192C2.92301 14.584 2.63421 17.5162 3.19691 20.3451C3.75961 23.174 5.14854 25.7725 7.18805 27.812C9.22757 29.8515 11.8261 31.2404 14.655 31.8031C17.4838 32.3658 20.4161 32.077 23.0808 30.9733C25.7456 29.8695 28.0232 28.0003 29.6256 25.6021C31.2281 23.2039 32.0834 20.3843 32.0834 17.5C32.0834 15.5849 31.7062 13.6886 30.9733 11.9192C30.2404 10.1499 29.1662 8.54223 27.812 7.18805C26.4578 5.83386 24.8502 4.75966 23.0808 4.02678C21.3115 3.2939 19.4151 2.91669 17.5 2.91669ZM17.5 29.1667C15.1926 29.1667 12.9369 28.4824 11.0184 27.2005C9.0998 25.9185 7.60445 24.0965 6.72143 21.9647C5.83841 19.8329 5.60737 17.4871 6.05753 15.224C6.50769 12.9609 7.61883 10.8821 9.25045 9.25044C10.8821 7.61883 12.9609 6.50769 15.224 6.05753C17.4871 5.60736 19.8329 5.8384 21.9647 6.72143C24.0965 7.60445 25.9186 9.09979 27.2005 11.0184C28.4825 12.9369 29.1667 15.1926 29.1667 17.5C29.1667 20.5942 27.9375 23.5617 25.7496 25.7496C23.5617 27.9375 20.5942 29.1667 17.5 29.1667Z" fill="#F01F4B"/>
<path d="M17.5 16.0417C14.5833 16.0417 14.5833 15.1229 14.5833 14.5833C14.5833 14.0438 15.6042 13.125 17.5 13.125C19.3958 13.125 19.5271 14.0583 19.5417 14.5833H22.4583C22.4386 13.5899 22.0813 12.6327 21.4452 11.8693C20.809 11.1059 19.932 10.5819 18.9583 10.3833V8.75H16.0417V10.3396C13.125 10.8208 11.6667 12.7021 11.6667 14.5833C11.6667 16.2167 12.425 18.9583 17.5 18.9583C20.4167 18.9583 20.4167 19.95 20.4167 20.4167C20.4167 20.8833 19.5125 21.875 17.5 21.875C14.8167 21.875 14.5833 20.6208 14.5833 20.4167H11.6667C11.6667 21.7583 12.6292 24.1354 16.0417 24.675V26.25H18.9583V24.675C21.875 24.1792 23.3333 22.2979 23.3333 20.4167C23.3333 18.7833 22.575 16.0417 17.5 16.0417Z" fill="#F01F4B"/>
</svg>
