<svg width="25" height="25" viewBox="0 0 25 25" fill="none" xmlns="http://www.w3.org/2000/svg">
<g id="bxl-instagram-alt.svg">
<path id="Vector" d="M21.5557 8.97122C21.5456 8.21384 21.4038 7.46399 21.1367 6.75522C20.905 6.15737 20.5512 5.61442 20.0978 5.16105C19.6445 4.70768 19.1015 4.35387 18.5037 4.12222C17.804 3.85957 17.0648 3.71756 16.3177 3.70222C15.3557 3.65922 15.0507 3.64722 12.6087 3.64722C10.1667 3.64722 9.85365 3.64722 8.89865 3.70222C8.15181 3.71767 7.413 3.85968 6.71365 4.12222C6.11571 4.35371 5.57267 4.70746 5.11928 5.16085C4.6659 5.61424 4.31214 6.15728 4.08065 6.75522C3.81748 7.45435 3.67578 8.19333 3.66165 8.94022C3.61865 9.90322 3.60565 10.2082 3.60565 12.6502C3.60565 15.0922 3.60565 15.4042 3.66165 16.3602C3.67665 17.1082 3.81765 17.8462 4.08065 18.5472C4.31253 19.145 4.66655 19.6878 5.12009 20.141C5.57363 20.5942 6.11672 20.9478 6.71465 21.1792C7.41209 21.4524 8.15102 21.6046 8.89965 21.6292C9.86265 21.6722 10.1677 21.6852 12.6097 21.6852C15.0517 21.6852 15.3647 21.6852 16.3197 21.6292C17.0668 21.6145 17.806 21.4728 18.5057 21.2102C19.1033 20.9783 19.6462 20.6244 20.0995 20.1711C20.5528 19.7177 20.9067 19.1749 21.1387 18.5772C21.4017 17.8772 21.5427 17.1392 21.5577 16.3902C21.6007 15.4282 21.6137 15.1232 21.6137 12.6802C21.6117 10.2382 21.6117 9.92822 21.5557 8.97122ZM12.6027 17.2682C10.0487 17.2682 7.97965 15.1992 7.97965 12.6452C7.97965 10.0912 10.0487 8.02222 12.6027 8.02222C13.8287 8.02222 15.0046 8.50928 15.8716 9.37626C16.7386 10.2432 17.2257 11.4191 17.2257 12.6452C17.2257 13.8713 16.7386 15.0472 15.8716 15.9142C15.0046 16.7812 13.8287 17.2682 12.6027 17.2682ZM17.4097 8.92922C17.2681 8.92935 17.1278 8.90156 16.997 8.84743C16.8661 8.7933 16.7472 8.7139 16.6471 8.61377C16.547 8.51364 16.4676 8.39475 16.4134 8.26391C16.3593 8.13306 16.3315 7.99282 16.3317 7.85122C16.3317 7.70972 16.3595 7.5696 16.4137 7.43888C16.4678 7.30815 16.5472 7.18936 16.6472 7.08931C16.7473 6.98925 16.8661 6.90989 16.9968 6.85574C17.1275 6.80159 17.2677 6.77372 17.4092 6.77372C17.5507 6.77372 17.6908 6.80159 17.8215 6.85574C17.9522 6.90989 18.071 6.98925 18.1711 7.08931C18.2711 7.18936 18.3505 7.30815 18.4046 7.43888C18.4588 7.5696 18.4867 7.70972 18.4867 7.85122C18.4867 8.44722 18.0047 8.92922 17.4097 8.92922Z" fill="white"/>
<path id="Vector_2" d="M12.6027 15.6483C14.2612 15.6483 15.6057 14.3038 15.6057 12.6453C15.6057 10.9868 14.2612 9.64233 12.6027 9.64233C10.9442 9.64233 9.59967 10.9868 9.59967 12.6453C9.59967 14.3038 10.9442 15.6483 12.6027 15.6483Z" fill="white"/>
</g>
</svg>
