<svg width="110" height="40" viewBox="0 0 110 40" fill="none" xmlns="http://www.w3.org/2000/svg">
<path fill-rule="evenodd" clip-rule="evenodd" d="M5.39944 22.4634C9.8725 22.4634 13.4986 18.8466 13.4986 14.385C13.4986 12.3256 12.7261 10.4463 11.4543 9.01947C11.6842 9.00655 11.9157 9 12.1488 9C18.8584 9 24.2976 14.4252 24.2976 21.1176C24.2976 27.81 18.8584 33.2352 12.1488 33.2352C5.43921 33.2352 0 27.81 0 21.1176C0 20.8848 0.00658495 20.6534 0.0195792 20.4238C1.45011 21.6926 3.33453 22.4634 5.39944 22.4634Z" fill="#F01F4B"/>
<ellipse cx="5.39947" cy="14.3856" rx="5.39947" ry="5.38561" fill="#FFBB38"/>
<path d="M45.5038 29.0001L39.2123 20.7359V29.0001H34.6537V10.2857H39.2123V18.4966L45.4505 10.2857H50.8089L43.5577 19.4563L51.0755 29.0001H45.5038ZM67.2644 21.3224C67.2644 21.7489 67.2377 22.1933 67.1844 22.6553H56.8675C56.9386 23.5795 57.2318 24.2904 57.7472 24.788C58.2804 25.2679 58.9291 25.5078 59.6933 25.5078C60.8307 25.5078 61.6216 25.028 62.0659 24.0683H66.9178C66.669 25.0457 66.2158 25.9255 65.5582 26.7075C64.9184 27.4895 64.1098 28.1026 63.1323 28.5469C62.1548 28.9912 61.0618 29.2134 59.8533 29.2134C58.3959 29.2134 57.0985 28.9024 55.9611 28.2803C54.8236 27.6583 53.935 26.7697 53.2952 25.6145C52.6554 24.4592 52.3355 23.1085 52.3355 21.5623C52.3355 20.0161 52.6465 18.6654 53.2685 17.5102C53.9084 16.355 54.797 15.4664 55.9344 14.8443C57.0719 14.2223 58.3781 13.9113 59.8533 13.9113C61.2928 13.9113 62.5725 14.2134 63.6921 14.8177C64.8118 15.4219 65.6826 16.2839 66.3047 17.4036C66.9445 18.5232 67.2644 19.8295 67.2644 21.3224ZM62.5991 20.1228C62.5991 19.3408 62.3325 18.7187 61.7993 18.2566C61.2662 17.7946 60.5997 17.5635 59.7999 17.5635C59.0357 17.5635 58.387 17.7857 57.8539 18.23C57.3385 18.6743 57.0185 19.3052 56.8941 20.1228H62.5991ZM71.9353 12.5783C71.1355 12.5783 70.478 12.3473 69.9625 11.8852C69.4649 11.4053 69.2161 10.8189 69.2161 10.1257C69.2161 9.41483 69.4649 8.82834 69.9625 8.36625C70.478 7.88639 71.1355 7.64646 71.9353 7.64646C72.7173 7.64646 73.3571 7.88639 73.8547 8.36625C74.3701 8.82834 74.6278 9.41483 74.6278 10.1257C74.6278 10.8189 74.3701 11.4053 73.8547 11.8852C73.3571 12.3473 72.7173 12.5783 71.9353 12.5783ZM74.2279 30.9196C74.2279 32.7501 73.7659 34.0653 72.8417 34.865C71.9175 35.6826 70.629 36.0913 68.9762 36.0913H67.19V32.2258H68.283C68.7807 32.2258 69.1361 32.1281 69.3494 31.9326C69.5627 31.7371 69.6693 31.4172 69.6693 30.9729V14.1245H74.2279V30.9196ZM84.2768 29.2134C82.8195 29.2134 81.5043 28.9024 80.3313 28.2803C79.1761 27.6583 78.2608 26.7697 77.5855 25.6145C76.9279 24.4592 76.5991 23.1085 76.5991 21.5623C76.5991 20.0339 76.9368 18.6921 77.6121 17.5369C78.2875 16.3639 79.2117 15.4664 80.3847 14.8443C81.5576 14.2223 82.8728 13.9113 84.3302 13.9113C85.7875 13.9113 87.1027 14.2223 88.2756 14.8443C89.4486 15.4664 90.3728 16.3639 91.0482 17.5369C91.7235 18.6921 92.0612 20.0339 92.0612 21.5623C92.0612 23.0908 91.7146 24.4415 91.0215 25.6145C90.3461 26.7697 89.4131 27.6583 88.2223 28.2803C87.0493 28.9024 85.7342 29.2134 84.2768 29.2134ZM84.2768 25.2679C85.1477 25.2679 85.8852 24.948 86.4895 24.3082C87.1116 23.6684 87.4226 22.7531 87.4226 21.5623C87.4226 20.3716 87.1204 19.4563 86.5162 18.8165C85.9297 18.1767 85.201 17.8568 84.3302 17.8568C83.4415 17.8568 82.704 18.1767 82.1175 18.8165C81.531 19.4385 81.2377 20.3538 81.2377 21.5623C81.2377 22.7531 81.5221 23.6684 82.0908 24.3082C82.6773 24.948 83.406 25.2679 84.2768 25.2679ZM101.251 29.2134C99.7936 29.2134 98.4785 28.9024 97.3055 28.2803C96.1503 27.6583 95.235 26.7697 94.5596 25.6145C93.902 24.4592 93.5732 23.1085 93.5732 21.5623C93.5732 20.0339 93.9109 18.6921 94.5863 17.5369C95.2616 16.3639 96.1858 15.4664 97.3588 14.8443C98.5318 14.2223 99.8469 13.9113 101.304 13.9113C102.762 13.9113 104.077 14.2223 105.25 14.8443C106.423 15.4664 107.347 16.3639 108.022 17.5369C108.698 18.6921 109.035 20.0339 109.035 21.5623C109.035 23.0908 108.689 24.4415 107.996 25.6145C107.32 26.7697 106.387 27.6583 105.196 28.2803C104.023 28.9024 102.708 29.2134 101.251 29.2134ZM101.251 25.2679C102.122 25.2679 102.859 24.948 103.464 24.3082C104.086 23.6684 104.397 22.7531 104.397 21.5623C104.397 20.3716 104.095 19.4563 103.49 18.8165C102.904 18.1767 102.175 17.8568 101.304 17.8568C100.416 17.8568 99.6781 18.1767 99.0916 18.8165C98.5051 19.4385 98.2119 20.3538 98.2119 21.5623C98.2119 22.7531 98.4962 23.6684 99.0649 24.3082C99.6514 24.948 100.38 25.2679 101.251 25.2679Z" fill="white"/>
</svg>
