<svg width="91" height="33" viewBox="0 0 91 33" fill="none" xmlns="http://www.w3.org/2000/svg">
<path fill-rule="evenodd" clip-rule="evenodd" d="M4.44444 18.1111C8.12634 18.1111 11.1111 15.1263 11.1111 11.4444C11.1111 9.74474 10.475 8.19361 9.42792 7.01609C9.61726 7.00541 9.808 7 10 7C15.5228 7 20 11.4772 20 17C20 22.5228 15.5228 27 10 27C4.47715 27 0 22.5228 0 17C0 16.808 0.00541164 16.6173 0.01609 16.4279C1.19361 17.475 2.74474 18.1111 4.44444 18.1111Z" fill="#F01F4B"/>
<circle cx="4.44444" cy="11.4444" r="4.44444" fill="#FFBB38"/>
<path d="M37.6285 24L32.4365 17.18V24H28.6745V8.556H32.4365V15.332L37.5845 8.556H42.0065L36.0225 16.124L42.2265 24H37.6285ZM55.5864 17.664C55.5864 18.016 55.5644 18.3827 55.5204 18.764H47.0064C47.0651 19.5267 47.3071 20.1133 47.7324 20.524C48.1724 20.92 48.7077 21.118 49.3384 21.118C50.2771 21.118 50.9297 20.722 51.2964 19.93H55.3004C55.0951 20.7367 54.7211 21.4627 54.1784 22.108C53.6504 22.7533 52.9831 23.2593 52.1764 23.626C51.3697 23.9927 50.4677 24.176 49.4704 24.176C48.2677 24.176 47.1971 23.9193 46.2584 23.406C45.3197 22.8927 44.5864 22.1593 44.0584 21.206C43.5304 20.2527 43.2664 19.138 43.2664 17.862C43.2664 16.586 43.5231 15.4713 44.0364 14.518C44.5644 13.5647 45.2977 12.8313 46.2364 12.318C47.1751 11.8047 48.2531 11.548 49.4704 11.548C50.6584 11.548 51.7144 11.7973 52.6384 12.296C53.5624 12.7947 54.2811 13.506 54.7944 14.43C55.3224 15.354 55.5864 16.432 55.5864 17.664ZM51.7364 16.674C51.7364 16.0287 51.5164 15.5153 51.0764 15.134C50.6364 14.7527 50.0864 14.562 49.4264 14.562C48.7957 14.562 48.2604 14.7453 47.8204 15.112C47.3951 15.4787 47.1311 15.9993 47.0284 16.674H51.7364ZM59.441 10.448C58.781 10.448 58.2384 10.2573 57.813 9.876C57.4024 9.48 57.197 8.996 57.197 8.424C57.197 7.83733 57.4024 7.35333 57.813 6.972C58.2384 6.576 58.781 6.378 59.441 6.378C60.0864 6.378 60.6144 6.576 61.025 6.972C61.4504 7.35333 61.663 7.83733 61.663 8.424C61.663 8.996 61.4504 9.48 61.025 9.876C60.6144 10.2573 60.0864 10.448 59.441 10.448ZM61.333 25.584C61.333 27.0947 60.9517 28.18 60.189 28.84C59.4264 29.5147 58.363 29.852 56.999 29.852H55.525V26.662H56.427C56.8377 26.662 57.131 26.5813 57.307 26.42C57.483 26.2587 57.571 25.9947 57.571 25.628V11.724H61.333V25.584ZM69.6258 24.176C68.4232 24.176 67.3378 23.9193 66.3698 23.406C65.4165 22.8927 64.6612 22.1593 64.1038 21.206C63.5612 20.2527 63.2898 19.138 63.2898 17.862C63.2898 16.6007 63.5685 15.4933 64.1258 14.54C64.6832 13.572 65.4458 12.8313 66.4138 12.318C67.3818 11.8047 68.4672 11.548 69.6698 11.548C70.8725 11.548 71.9578 11.8047 72.9258 12.318C73.8938 12.8313 74.6565 13.572 75.2138 14.54C75.7712 15.4933 76.0498 16.6007 76.0498 17.862C76.0498 19.1233 75.7638 20.238 75.1918 21.206C74.6345 22.1593 73.8645 22.8927 72.8818 23.406C71.9138 23.9193 70.8285 24.176 69.6258 24.176ZM69.6258 20.92C70.3445 20.92 70.9532 20.656 71.4518 20.128C71.9652 19.6 72.2218 18.8447 72.2218 17.862C72.2218 16.8793 71.9725 16.124 71.4738 15.596C70.9898 15.068 70.3885 14.804 69.6698 14.804C68.9365 14.804 68.3278 15.068 67.8438 15.596C67.3598 16.1093 67.1178 16.8647 67.1178 17.862C67.1178 18.8447 67.3525 19.6 67.8218 20.128C68.3058 20.656 68.9072 20.92 69.6258 20.92ZM83.6336 24.176C82.431 24.176 81.3456 23.9193 80.3776 23.406C79.4243 22.8927 78.669 22.1593 78.1116 21.206C77.569 20.2527 77.2976 19.138 77.2976 17.862C77.2976 16.6007 77.5763 15.4933 78.1336 14.54C78.691 13.572 79.4536 12.8313 80.4216 12.318C81.3896 11.8047 82.475 11.548 83.6776 11.548C84.8803 11.548 85.9656 11.8047 86.9336 12.318C87.9016 12.8313 88.6643 13.572 89.2216 14.54C89.779 15.4933 90.0576 16.6007 90.0576 17.862C90.0576 19.1233 89.7716 20.238 89.1996 21.206C88.6423 22.1593 87.8723 22.8927 86.8896 23.406C85.9216 23.9193 84.8363 24.176 83.6336 24.176ZM83.6336 20.92C84.3523 20.92 84.961 20.656 85.4596 20.128C85.973 19.6 86.2296 18.8447 86.2296 17.862C86.2296 16.8793 85.9803 16.124 85.4816 15.596C84.9976 15.068 84.3963 14.804 83.6776 14.804C82.9443 14.804 82.3356 15.068 81.8516 15.596C81.3676 16.1093 81.1256 16.8647 81.1256 17.862C81.1256 18.8447 81.3603 19.6 81.8296 20.128C82.3136 20.656 82.915 20.92 83.6336 20.92Z" fill="#18181B"/>
</svg>
