<svg width="25" height="21" viewBox="0 0 25 21" fill="none" xmlns="http://www.w3.org/2000/svg">
<path id="Twitter" d="M7.7392 20.2146C17.0259 20.2146 22.1045 12.5207 22.1045 5.84932C22.1045 5.63072 22.1 5.41325 22.0899 5.19662C23.0757 4.48402 23.9327 3.59453 24.6086 2.58246C23.704 2.98438 22.7306 3.25503 21.7093 3.37706C22.7516 2.75207 23.5521 1.76294 23.9296 0.584053C22.9539 1.16258 21.8736 1.58297 20.7238 1.80968C19.8021 0.828395 18.49 0.2146 17.0382 0.2146C14.2497 0.2146 11.9885 2.47582 11.9885 5.26295C11.9885 5.65927 12.033 6.0444 12.1192 6.41413C7.92337 6.20338 4.20253 4.19406 1.71264 1.13935C1.27853 1.88525 1.02859 2.75235 1.02859 3.67682C1.02859 5.42836 1.92004 6.97475 3.27554 7.87963C2.44735 7.85416 1.66926 7.62633 0.988846 7.24792C0.987727 7.26891 0.987727 7.29018 0.987727 7.31229C0.987727 9.75768 2.72835 11.7992 5.03827 12.2618C4.61424 12.3774 4.1681 12.4396 3.7074 12.4396C3.38217 12.4396 3.0659 12.4071 2.7583 12.3486C3.40093 14.3543 5.26498 15.8142 7.47498 15.8553C5.74667 17.2097 3.5697 18.0166 1.20436 18.0166C0.797123 18.0166 0.395203 17.9934 0 17.9467C2.23435 19.3786 4.88741 20.2146 7.7392 20.2146Z" fill="white"/>
</svg>
